<svg width="36" height="36" viewBox="0 0 36 36" fill="none" xmlns="http://www.w3.org/2000/svg">
<rect x="0.5" y="0.5" width="35" height="35" rx="17.5" fill="white"/>
<rect x="0.5" y="0.5" width="35" height="35" rx="17.5" stroke="#EAEAEA"/>
<g clip-path="url(#clip0_276_6821)">
<path d="M25.5608 21.7961C25.8536 21.4405 25.8536 21.085 25.5608 20.7294C25.2052 20.4366 24.8497 20.4366 24.4941 20.7294L22.7686 22.4549V11.7255C22.7268 11.2654 22.4758 11.0144 22.0157 10.9725C21.5556 11.0144 21.3046 11.2654 21.2627 11.7255V22.4549L19.5373 20.7294C19.1817 20.4366 18.8261 20.4366 18.4706 20.7294C18.1778 21.085 18.1778 21.4405 18.4706 21.7961L21.4823 24.8078C21.8379 25.1007 22.1935 25.1007 22.549 24.8078L25.5608 21.7961ZM14.5176 11.1922C14.1621 10.8993 13.8065 10.8993 13.451 11.1922L10.4392 14.2039C10.1464 14.5595 10.1464 14.915 10.4392 15.2706C10.7948 15.5634 11.1503 15.5634 11.5059 15.2706L13.2314 13.5451V24.2745C13.2732 24.7346 13.5242 24.9856 13.9843 25.0275C14.4444 24.9856 14.6954 24.7346 14.7373 24.2745V13.5451L16.4627 15.2706C16.8183 15.5634 17.1739 15.5634 17.5294 15.2706C17.8222 14.915 17.8222 14.5595 17.5294 14.2039L14.5176 11.1922Z" fill="black"/>
</g>
<defs>
<clipPath id="clip0_276_6821">
<rect width="16" height="16" fill="white" transform="translate(10 10)"/>
</clipPath>
</defs>
</svg>
