<svg width="25" height="24" viewBox="0 0 25 24" fill="currentColor" xmlns="http://www.w3.org/2000/svg">
  <g clip-path="url(#clip0_2001_315)">
    <path d="M2.99998 20.6663H12.2083C12.7083 21.4441 13.3333 22.0969 14.0833 22.6247C13.9444 22.6525 13.8055 22.6663 13.6666 22.6663H2.99998C2.24998 22.6386 1.62498 22.3747 1.12498 21.8747C0.62498 21.3747 0.361091 20.7497 0.333313 19.9997V3.99967C0.361091 3.24967 0.62498 2.62467 1.12498 2.12467C1.62498 1.62467 2.24998 1.36079 2.99998 1.33301H9.91665C10.6389 1.33301 11.2639 1.5969 11.7916 2.12467L15.5416 5.87467C16.0694 6.40245 16.3333 7.04134 16.3333 7.79134V9.62467C15.6111 9.81912 14.9444 10.1108 14.3333 10.4997V7.99967H11C10.6111 7.99967 10.2916 7.87467 10.0416 7.62467C9.79165 7.37467 9.66665 7.05523 9.66665 6.66634V3.33301H2.99998C2.58331 3.36079 2.36109 3.58301 2.33331 3.99967V19.9997C2.36109 20.4163 2.58331 20.6386 2.99998 20.6663ZM18.3333 10.6663C19.4166 10.6663 20.4166 10.9302 21.3333 11.458C22.25 11.9858 22.9861 12.7219 23.5416 13.6663C24.0694 14.6108 24.3333 15.6108 24.3333 16.6663C24.3333 17.7219 24.0694 18.7219 23.5416 19.6663C22.9861 20.6108 22.25 21.3469 21.3333 21.8747C20.4166 22.4025 19.4166 22.6663 18.3333 22.6663C17.25 22.6663 16.25 22.4025 15.3333 21.8747C14.4166 21.3469 13.6805 20.6108 13.125 19.6663C12.5972 18.7219 12.3333 17.7219 12.3333 16.6663C12.3333 15.6108 12.5972 14.6108 13.125 13.6663C13.6805 12.7219 14.4166 11.9858 15.3333 11.458C16.25 10.9302 17.25 10.6663 18.3333 10.6663ZM19 13.9997C18.9722 13.583 18.75 13.3608 18.3333 13.333C17.9166 13.3608 17.6944 13.583 17.6666 13.9997V15.9997H15.6666C15.25 16.0275 15.0278 16.2497 15 16.6663C15.0278 17.083 15.25 17.3052 15.6666 17.333H17.6666V19.333C17.6944 19.7497 17.9166 19.9719 18.3333 19.9997C18.75 19.9719 18.9722 19.7497 19 19.333V17.333H21C21.4166 17.3052 21.6389 17.083 21.6666 16.6663C21.6389 16.2497 21.4166 16.0275 21 15.9997H19V13.9997Z"/>
  </g>
  <defs>
    <clipPath id="clip0_2001_315">
      <rect width="24" height="24" transform="translate(0.333313)"/>
    </clipPath>
  </defs>
</svg>
