<svg width="24" height="24" viewBox="0 0 24 24" fill="none" xmlns="http://www.w3.org/2000/svg">
<path d="M5.4 5.99998C5.425 5.62498 5.625 5.42498 6 5.39998H21.6C21.975 5.42498 22.175 5.62498 22.2 5.99998V7.42498C21.25 8.07498 20.75 8.99998 20.7 10.2C20.75 11.4 21.25 12.325 22.2 12.975V14.4C22.175 14.775 21.975 14.975 21.6 15H6C5.625 14.975 5.425 14.775 5.4 14.4V12.975C6.35 12.325 6.85 11.4 6.9 10.2C6.85 8.99998 6.35 8.07498 5.4 7.42498V5.99998ZM3.6 5.99998V8.09998C3.65 8.44998 3.85 8.68748 4.2 8.81248C4.775 9.08748 5.075 9.54998 5.1 10.2C5.075 10.85 4.775 11.3125 4.2 11.5875C3.85 11.7125 3.65 11.95 3.6 12.3V14.4C3.625 15.075 3.8625 15.6375 4.3125 16.0875C4.7625 16.5375 5.325 16.775 6 16.8H21.6C22.275 16.775 22.8375 16.5375 23.2875 16.0875C23.7375 15.6375 23.975 15.075 24 14.4V12.3C23.95 11.95 23.75 11.7125 23.4 11.5875C22.825 11.3125 22.525 10.85 22.5 10.2C22.525 9.54998 22.825 9.08748 23.4 8.81248C23.75 8.68748 23.95 8.44998 24 8.09998V5.99998C23.975 5.32498 23.7375 4.76248 23.2875 4.31248C22.8375 3.86248 22.275 3.62498 21.6 3.59998H6C5.325 3.62498 4.7625 3.86248 4.3125 4.31248C3.8625 4.76248 3.625 5.32498 3.6 5.99998ZM1.8 6.89998C1.75 6.34998 1.45 6.04998 0.9 5.99998C0.35 6.04998 0.05 6.34998 0 6.89998V15.9C0.025 17.175 0.4625 18.2375 1.3125 19.0875C2.1625 19.9375 3.225 20.375 4.5 20.4H19.5C20.05 20.35 20.35 20.05 20.4 19.5C20.35 18.95 20.05 18.65 19.5 18.6H4.5C3.725 18.575 3.0875 18.3125 2.5875 17.8125C2.0875 17.3125 1.825 16.675 1.8 15.9V6.89998Z" fill="#2D2E2F"/>
</svg>
