<svg width="51" height="34" viewBox="0 0 51 34" fill="none" xmlns="http://www.w3.org/2000/svg">
<path d="M22.7783 33.9615C21.9698 33.923 21.1419 33.8074 20.2944 33.6245C21.1029 33.7978 21.9309 33.9133 22.7783 33.9615Z" fill="#2D2E2F" fill-opacity="0.6"/>
<path d="M35.6949 22.4257L35.5585 25.7381C35.4903 27.5292 34.7403 29.2335 33.4447 30.4853C31.8472 32.0164 29.8211 33.1237 27.5319 33.6148C27.4735 33.6245 27.415 33.6437 27.3566 33.6534H27.3469C26.2266 33.8748 25.0772 34 23.8888 34C23.5479 34 23.2167 33.9904 22.8855 33.9711C22.8563 33.9711 22.8173 33.9711 22.7881 33.9615C21.9406 33.9037 21.1126 33.7978 20.3041 33.6245C20.2165 33.6052 20.1288 33.5859 20.0314 33.5667C18.239 33.1526 16.4175 32.4208 14.7128 31.3809C14.6544 31.352 14.6056 31.3135 14.5472 31.2749C14.4888 31.2364 14.4303 31.2075 14.3816 31.169C14.3816 31.169 14.3719 31.1594 14.3621 31.1594C11.4203 29.2239 9.10199 26.4122 7.81618 23.0998C7.07587 21.2028 6.66675 19.1325 6.66675 16.9756C6.66675 16.3882 6.69597 15.8104 6.75442 15.2327V15.2231C6.78364 14.9823 6.81286 14.732 6.85183 14.4912C7.73826 27.7507 24.2979 30.5239 35.6949 22.4257Z" fill="#2D2E2F" fill-opacity="0.6"/>
<path d="M50.6667 6.21976C50.0531 8.20338 46.3028 11.1307 41.8122 14.0387C41.6758 14.8572 41.4615 16.0127 41.179 17.3319C40.5069 20.471 39.4451 24.4671 38.0424 26.6144C37.5944 27.3077 37.1073 27.8084 36.591 28.0299L36.669 25.0737L36.8833 17.3896L36.893 17.0526C36.5521 17.2548 36.2209 17.4474 35.8799 17.64C33.9999 18.7281 32.1589 19.7488 30.5224 20.6347C29.558 21.1546 28.6619 21.6361 27.8631 22.0598C29.6457 20.885 32.7433 18.6607 34.9351 15.9934C35.052 15.8586 35.1591 15.7238 35.2663 15.589C37.1463 13.3261 38.5587 11.8721 39.7666 10.8707C39.7666 10.8707 39.7763 10.8707 39.7763 10.861C40.3413 10.4374 40.8868 10.0522 41.4031 9.6959C44.1793 7.78932 46.1859 6.8264 47.5983 6.37383C49.9167 5.63238 50.6667 6.21976 50.6667 6.21976Z" fill="#2D2E2F" fill-opacity="0.6"/>
<path d="M44.6273 6.85529C44.6273 6.85529 42.0362 7.87599 37.7989 11.2847C37.7989 11.2847 35.3637 10.9766 32.8797 11.0344C30.727 11.0825 28.545 11.4003 27.9118 12.4306L28.1846 12.5365L33.3862 14.5009C33.3862 14.5009 26.6065 19.6044 23.7232 20.7213C23.5381 20.6732 23.3628 20.5962 23.1874 20.5095L21.1711 19.4503C20.5866 19.1422 19.9242 19.0459 19.2813 19.171L19.1644 19.1903C18.9988 19.2192 18.9404 19.431 19.067 19.537L23.6355 23.456L23.6453 23.4657C23.8985 23.6968 24.483 23.7931 24.7947 23.8123C21.4146 24.573 18.1319 24.5152 15.3362 23.6294C13.9043 23.0998 12.5211 22.3872 11.3034 21.4917C10.5923 20.9139 9.95918 20.2399 9.41369 19.4888C9.05327 18.9977 8.7513 18.4777 8.48829 17.9385C6.8031 14.4527 7.29989 10.3411 9.60851 7.22121C12.0925 3.86061 16.1739 1.26073 20.4892 0.365215C27.0351 -0.992502 33.4837 1.53035 37.3995 6.35458C37.3995 6.35458 37.8963 6.91307 38.3931 7.92414C38.5197 8.18412 38.6464 8.473 38.773 8.78113C39.4354 8.39596 40.0686 8.09746 40.6433 7.8471C43.059 6.83604 44.6273 6.85529 44.6273 6.85529Z" fill="#2D2E2F" fill-opacity="0.6"/>
</svg>
