<svg width="24" height="24" viewBox="0 0 24 24" fill="none" xmlns="http://www.w3.org/2000/svg">
<path d="M20.1663 13.2601C19.3961 13.1901 18.9759 12.77 18.9059 11.9997C18.9759 11.2295 19.3961 10.8094 20.1663 10.7393C20.9365 10.8094 21.3567 11.2295 21.4267 11.9997C21.3567 12.77 20.9365 13.1901 20.1663 13.2601ZM20.1663 8.63867C18.9059 8.67368 17.9431 9.23386 17.2779 10.3192C16.6477 11.4395 16.6477 12.5599 17.2779 13.6802C17.9431 14.7656 18.9059 15.3258 20.1663 15.3608C21.4267 15.3258 22.3895 14.7656 23.0547 13.6802C23.6849 12.5599 23.6849 11.4395 23.0547 10.3192C22.3895 9.23386 21.4267 8.67368 20.1663 8.63867ZM11.7637 13.2601C10.9934 13.1901 10.5733 12.77 10.5033 11.9997C10.5733 11.2295 10.9934 10.8094 11.7637 10.7393C12.5339 10.8094 12.954 11.2295 13.0241 11.9997C12.954 12.77 12.5339 13.1901 11.7637 13.2601ZM11.7637 8.63867C10.5033 8.67368 9.54048 9.23386 8.87527 10.3192C8.24508 11.4395 8.24508 12.5599 8.87527 13.6802C9.54048 14.7656 10.5033 15.3258 11.7637 15.3608C13.0241 15.3258 13.9869 14.7656 14.6521 13.6802C15.2823 12.5599 15.2823 11.4395 14.6521 10.3192C13.9869 9.23386 13.0241 8.67368 11.7637 8.63867ZM4.62144 11.9997C4.55142 12.77 4.13129 13.1901 3.36105 13.2601C2.59081 13.1901 2.17068 12.77 2.10066 11.9997C2.17068 11.2295 2.59081 10.8094 3.36105 10.7393C4.13129 10.8094 4.55142 11.2295 4.62144 11.9997ZM0 11.9997C0.0350109 13.2601 0.595186 14.2229 1.68053 14.8881C2.80088 15.5183 3.92123 15.5183 5.04158 14.8881C6.12691 14.2229 6.68709 13.2601 6.7221 11.9997C6.68709 10.7393 6.12691 9.77653 5.04158 9.11132C3.92123 8.48112 2.80088 8.48112 1.68053 9.11132C0.595186 9.77653 0.0350109 10.7393 0 11.9997Z" fill="#2D2E2F"/>
</svg>
