<svg width="989" height="150" viewBox="0 0 989 150" fill="none" xmlns="http://www.w3.org/2000/svg">
<path d="M928.16 148.64H902.617V57.6096H953.023C974.626 57.6096 988.213 69.9735 988.213 91.5763C988.213 113.179 974.626 125.679 953.023 125.679H928.16V148.64ZM950.17 80.5711H928.16V102.717H950.17C959.137 102.717 962.806 100.951 962.806 91.5763C962.806 82.3374 959.137 80.5711 950.17 80.5711Z" fill="#053576"/>
<path d="M837.141 148.64H811.598V57.6096H862.004C883.607 57.6096 897.194 69.9735 897.194 91.5763C897.194 113.179 883.607 125.679 862.004 125.679H837.141V148.64ZM859.151 80.5711H837.141V102.717H859.151C868.118 102.717 871.787 100.951 871.787 91.5763C871.787 82.3374 868.118 80.5711 859.151 80.5711Z" fill="#053576"/>
<path d="M722.316 148.64H693.648L732.913 57.6096H769.462L808.863 148.64H779.516L772.586 131.793H729.381L722.316 148.64ZM744.326 96.0599L739.027 108.831H763.212L757.913 96.0599L751.935 80.707H750.168L744.326 96.0599Z" fill="#053576"/>
<path d="M641.321 149.999C609.664 149.999 590.915 131.521 590.915 103.125C590.915 74.7288 609.664 56.251 641.321 56.251C673.793 56.251 692.271 74.7288 692.271 103.125C692.271 131.521 673.793 149.999 641.321 149.999ZM641.321 125.543C659.799 125.543 665.098 121.195 665.098 103.125C665.098 85.0547 659.799 80.707 641.321 80.707C622.843 80.707 618.088 85.0547 618.088 103.125C618.088 121.195 622.843 125.543 641.321 125.543Z" fill="#053576"/>
<path d="M413.221 148.64H387.678V57.6096H440.802C464.85 57.6096 477.486 67.6638 477.486 85.4623C477.486 99.8642 470.285 108.424 452.894 110.598V111.956C462.269 114.402 465.258 118.885 468.655 125.815L479.932 148.64H450.449L439.579 126.358C436.318 119.565 433.601 117.663 423.683 117.663H413.221V148.64ZM413.221 80.5711V98.6413H440.53C448.003 98.6413 450.72 97.2827 450.72 89.5383C450.72 82.3373 448.003 80.5711 440.53 80.5711H413.221Z" fill="#053576"/>
<path d="M298.396 148.64H269.728L308.994 57.6096H345.542L384.943 148.64H355.596L348.667 131.793H305.461L298.396 148.64ZM320.407 96.0599L315.108 108.831H339.292L333.993 96.0599L328.015 80.707H326.249L320.407 96.0599Z" fill="#053576"/>
<path d="M201.327 148.64H175.784V57.6096H201.327V91.4404H219.669L241.815 57.6096H272.385L240.864 102.31L271.706 148.64H241.136L219.941 116.304H201.327V148.64Z" fill="#053576"/>
<path d="M527.529 150C498.861 150 482.149 131.522 482.149 103.126C482.149 74.7291 501.714 56.251 534.866 56.251C565.708 56.251 584.051 69.8378 584.051 92.3919L555.518 95.9755V92.3919C555.518 83.9681 550.355 80.7073 534.187 80.7073C514.622 80.7073 509.323 85.0551 509.323 103.126C509.323 121.196 514.35 125.544 532.828 125.544C544.628 124.746 548.907 122.962 554.614 117.663H544.377H530.383L530.361 106.021L584.187 98.9136L572.298 148.641H560.41V132.235C557.824 135.802 553.544 147.928 527.529 150Z" fill="#053576"/>
<path d="M0 148.645C61.9641 141.527 78.6824 117.474 86.8675 104.113C87.9553 102.337 88.8925 100.808 89.7651 99.6042V148.645H125.302L160.839 0L0 21.2387V50.7429L0.00967837 56.0464H72.441C55.3833 71.8856 42.5901 77.2161 7.32012 79.6021C4.79698 79.6021 2.35774 79.575 0 79.5181V148.645Z" fill="#053576"/>
</svg>
