<svg width="32" height="25" viewBox="0 0 32 25" fill="none" xmlns="http://www.w3.org/2000/svg">
<path d="M11.6536 24.9717C11.0688 24.9434 10.4699 24.8584 9.85695 24.7239C10.4417 24.8513 11.0406 24.9363 11.6536 24.9717Z" fill="#356DBB"/>
<path d="M20.9962 16.4895L20.8976 18.9251C20.8482 20.242 20.3057 21.4953 19.3687 22.4157C18.2132 23.5415 16.7476 24.3557 15.0919 24.7168C15.0496 24.7239 15.0074 24.738 14.9651 24.7451H14.958C14.1478 24.908 13.3164 25 12.4568 25C12.2102 25 11.9707 24.9929 11.7311 24.9788C11.71 24.9788 11.6818 24.9788 11.6606 24.9717C11.0477 24.9292 10.4488 24.8513 9.86399 24.7239C9.80058 24.7097 9.73717 24.6955 9.66671 24.6814C8.3703 24.3769 7.05275 23.8388 5.81975 23.0742C5.77748 23.0529 5.74225 23.0246 5.69998 22.9963C5.6577 22.968 5.61543 22.9467 5.5802 22.9184C5.5802 22.9184 5.57315 22.9113 5.56611 22.9113C3.4383 21.4882 1.76143 19.4207 0.831394 16.9851C0.29592 15.5903 0 14.068 0 12.482C0 12.0501 0.0211367 11.6253 0.0634109 11.2005V11.1934C0.0845481 11.0164 0.105685 10.8323 0.133868 10.6553C0.775027 20.4049 12.7527 22.444 20.9962 16.4895Z" fill="#356DBB"/>
<path d="M31.8254 4.57335C31.3816 6.03189 28.669 8.18431 25.4209 10.3226C25.3223 10.9244 25.1672 11.774 24.9629 12.744C24.4768 15.0522 23.7088 17.9905 22.6942 19.5694C22.3701 20.0792 22.0178 20.4474 21.6444 20.6102L21.7008 18.4366L21.8558 12.7865L21.8628 12.5387C21.6162 12.6874 21.3767 12.829 21.1301 12.9706C19.7702 13.7707 18.4386 14.5212 17.2549 15.1726C16.5574 15.5549 15.9092 15.9089 15.3314 16.2204C16.6208 15.3566 18.8613 13.7211 20.4466 11.7599C20.5312 11.6607 20.6087 11.5616 20.6862 11.4625C22.046 9.79861 23.0676 8.72949 23.9413 7.99314C23.9413 7.99314 23.9483 7.99314 23.9483 7.98606C24.357 7.67452 24.7516 7.39131 25.125 7.12934C27.133 5.72744 28.5844 5.01941 29.606 4.68664C31.2829 4.14145 31.8254 4.57335 31.8254 4.57335Z" fill="#356DBB"/>
<path d="M27.4571 5.04066C27.4571 5.04066 25.5829 5.79117 22.5181 8.29759C22.5181 8.29759 20.7566 8.07102 18.96 8.1135C17.4029 8.14891 15.8246 8.38256 15.3667 9.14015L15.564 9.21803L19.3264 10.6624C19.3264 10.6624 14.4225 14.415 12.337 15.2363C12.2031 15.2009 12.0763 15.1442 11.9495 15.0805L10.491 14.3017C10.0683 14.0751 9.58919 14.0043 9.12418 14.0964L9.03963 14.1105C8.91985 14.1318 8.87758 14.2875 8.96917 14.3654L12.2736 17.2471L12.2807 17.2542C12.4638 17.4241 12.8866 17.4949 13.112 17.5091C10.6672 18.0684 8.29278 18.0259 6.27067 17.3745C5.23495 16.9851 4.23446 16.4612 3.35374 15.8027C2.83941 15.3779 2.38143 14.8823 1.98688 14.33C1.72618 13.9689 1.50777 13.5866 1.31753 13.1901C0.0986259 10.627 0.457957 7.60372 2.12779 5.30971C3.92444 2.83869 6.8766 0.927008 9.99784 0.268541C14.7326 -0.729781 19.3968 1.12526 22.2292 4.67248C22.2292 4.67248 22.5885 5.08314 22.9479 5.82657C23.0394 6.01774 23.131 6.23014 23.2226 6.45671C23.7017 6.1735 24.1597 5.95402 24.5754 5.76993C26.3227 5.0265 27.4571 5.04066 27.4571 5.04066Z" fill="white"/>
</svg>
