<svg width="18" height="18" viewBox="0 0 18 18" fill="none" xmlns="http://www.w3.org/2000/svg">
<path d="M9.01797 0C8.68984 0 8.42031 0.105469 8.20937 0.316406C7.99844 0.527344 7.89297 0.796875 7.89297 1.125V1.79297C6.58047 2.07422 5.51406 2.71875 4.69375 3.72656C3.85 4.73438 3.41641 5.92969 3.39297 7.3125V8.19141C3.36953 9.83203 2.85391 11.2969 1.84609 12.5859L1.31875 13.2539C1.10781 13.5352 1.07266 13.8281 1.21328 14.1328C1.37734 14.4375 1.63516 14.6016 1.98672 14.625H16.0492C16.4008 14.6016 16.6586 14.4375 16.8227 14.1328C16.9398 13.8281 16.9047 13.5352 16.7172 13.2539L16.1898 12.5859C15.182 11.2969 14.6664 9.83203 14.643 8.19141V7.3125C14.6195 5.92969 14.1859 4.73438 13.3422 3.72656C12.5219 2.71875 11.4555 2.07422 10.143 1.79297V1.125C10.143 0.796875 10.0375 0.527344 9.82656 0.316406C9.61562 0.105469 9.34609 0 9.01797 0ZM9.01797 3.375C10.143 3.39844 11.0687 3.78516 11.7953 4.53516C12.5453 5.26172 12.932 6.1875 12.9555 7.3125V8.19141C12.9555 9.92578 13.4242 11.5078 14.3617 12.9375H3.67422C4.58828 11.5078 5.05703 9.92578 5.08047 8.19141V7.3125C5.10391 6.1875 5.49062 5.26172 6.24062 4.53516C6.96719 3.78516 7.89297 3.39844 9.01797 3.375ZM11.268 15.75H6.76797C6.76797 16.3594 6.99062 16.8867 7.43594 17.332C7.88125 17.7773 8.40859 18 9.01797 18C9.62734 18 10.1547 17.7773 10.6 17.332C11.0453 16.8867 11.268 16.3594 11.268 15.75Z" fill="white"/>
</svg>
