<svg width="45" height="44" viewBox="0 0 45 44" fill="none" xmlns="http://www.w3.org/2000/svg">
<rect x="0.5" width="44" height="44" rx="10" fill="url(#paint0_linear_287_1557)"/>
<rect x="0.5" width="44" height="44" rx="10" fill="url(#paint1_radial_287_1557)"/>
<path d="M27.5625 19.1875V28.75C27.5391 29.1016 27.3516 29.2891 27 29.3125H18C17.6484 29.2891 17.4609 29.1016 17.4375 28.75V19.1875H27.5625ZM27.5625 17.5H17.4375V15.25C17.4609 14.8984 17.6484 14.7109 18 14.6875H27C27.3516 14.7109 27.5391 14.8984 27.5625 15.25V17.5ZM29.25 17.5V15.25C29.2266 14.6172 29.0039 14.0898 28.582 13.668C28.1602 13.2461 27.6328 13.0234 27 13H18C17.3672 13.0234 16.8398 13.2461 16.418 13.668C15.9961 14.0898 15.7734 14.6172 15.75 15.25V17.5V18.3438V19.1875V28.75C15.7734 29.3828 15.9961 29.9102 16.418 30.332C16.8398 30.7539 17.3672 30.9766 18 31H27C27.6328 30.9766 28.1602 30.7539 28.582 30.332C29.0039 29.9102 29.2266 29.3828 29.25 28.75V19.1875V18.3438V17.5ZM18.5625 21.1562C18.6094 21.6719 18.8906 21.9531 19.4062 22C19.9219 21.9531 20.2031 21.6719 20.25 21.1562C20.2031 20.6406 19.9219 20.3594 19.4062 20.3125C18.8906 20.3594 18.6094 20.6406 18.5625 21.1562ZM19.4062 23.4062C18.8906 23.4531 18.6094 23.7344 18.5625 24.25C18.6094 24.7656 18.8906 25.0469 19.4062 25.0938C19.9219 25.0469 20.2031 24.7656 20.25 24.25C20.2031 23.7344 19.9219 23.4531 19.4062 23.4062ZM18.5625 27.3438C18.6094 27.8594 18.8906 28.1406 19.4062 28.1875H22.5C23.0156 28.1406 23.2969 27.8594 23.3438 27.3438C23.2969 26.8281 23.0156 26.5469 22.5 26.5H19.4062C18.8906 26.5469 18.6094 26.8281 18.5625 27.3438ZM22.5 20.3125C21.9844 20.3594 21.7031 20.6406 21.6562 21.1562C21.7031 21.6719 21.9844 21.9531 22.5 22C23.0156 21.9531 23.2969 21.6719 23.3438 21.1562C23.2969 20.6406 23.0156 20.3594 22.5 20.3125ZM21.6562 24.25C21.7031 24.7656 21.9844 25.0469 22.5 25.0938C23.0156 25.0469 23.2969 24.7656 23.3438 24.25C23.2969 23.7344 23.0156 23.4531 22.5 23.4062C21.9844 23.4531 21.7031 23.7344 21.6562 24.25ZM25.5938 20.3125C25.0781 20.3594 24.7969 20.6406 24.75 21.1562C24.7969 21.6719 25.0781 21.9531 25.5938 22C26.1094 21.9531 26.3906 21.6719 26.4375 21.1562C26.3906 20.6406 26.1094 20.3594 25.5938 20.3125ZM24.75 24.25C24.7969 24.7656 25.0781 25.0469 25.5938 25.0938C26.1094 25.0469 26.3906 24.7656 26.4375 24.25C26.3906 23.7344 26.1094 23.4531 25.5938 23.4062C25.0781 23.4531 24.7969 23.7344 24.75 24.25ZM25.5938 26.5C25.0781 26.5469 24.7969 26.8281 24.75 27.3438C24.7969 27.8594 25.0781 28.1406 25.5938 28.1875C26.1094 28.1406 26.3906 27.8594 26.4375 27.3438C26.3906 26.8281 26.1094 26.5469 25.5938 26.5Z" fill="white"/>
<defs>
<linearGradient id="paint0_linear_287_1557" x1="44.5" y1="22" x2="0.5" y2="22" gradientUnits="userSpaceOnUse">
<stop stop-color="#053576" stop-opacity="0.1"/>
<stop offset="1" stop-color="#356DBB" stop-opacity="0.05"/>
</linearGradient>
<radialGradient id="paint1_radial_287_1557" cx="0" cy="0" r="1" gradientUnits="userSpaceOnUse" gradientTransform="translate(42.2044 2.2) rotate(154.603) scale(46.1659 44.8274)">
<stop stop-color="#5C8BCE"/>
<stop offset="1" stop-color="#356DBB"/>
</radialGradient>
</defs>
</svg>
