<svg width="18" height="18" viewBox="0 0 18 18" fill="none" xmlns="http://www.w3.org/2000/svg">
<path d="M1.99653 15.4575H9.70191C10.0347 15.9151 10.4402 16.331 10.9185 16.7054C10.6482 16.8717 10.3362 16.9549 9.98267 16.9549H1.99653C1.43501 16.9341 0.967071 16.7366 0.592721 16.3622C0.218371 15.9879 0.0207972 15.5199 0 14.9584V2.9792C0.0207972 2.41767 0.218371 1.94974 0.592721 1.57539C0.967071 1.20104 1.43501 1.00346 1.99653 0.982666H7.17504C7.71577 0.982666 8.18371 1.18024 8.57886 1.57539L11.3865 4.38301C11.7816 4.77816 11.9792 5.2565 11.9792 5.81802V7.44021L10.4818 8.03293V5.974H7.98613C7.69497 5.974 7.45581 5.88041 7.26863 5.69324C7.08146 5.50606 6.98787 5.26689 6.98787 4.97573V2.48007H1.99653C1.68458 2.50086 1.5182 2.66724 1.4974 2.9792V14.9584C1.5182 15.2704 1.68458 15.4367 1.99653 15.4575ZM13.1958 8.03293C13.383 7.94974 13.5702 7.94974 13.7574 8.03293L17.5009 9.53033C17.792 9.65511 17.948 9.88388 17.9688 10.2166C17.9896 10.9029 17.8752 11.6724 17.6256 12.5251C17.3969 13.3778 16.9809 14.1993 16.3778 14.9896C15.7539 15.7799 14.8804 16.4142 13.7574 16.8925C13.5702 16.9757 13.383 16.9757 13.1958 16.8925C12.0728 16.4142 11.1993 15.7799 10.5754 14.9896C9.97227 14.1993 9.55632 13.3778 9.32756 12.5251C9.07799 11.6724 8.9636 10.9029 8.9844 10.2166C9.0052 9.88388 9.16118 9.65511 9.45234 9.53033L13.1958 8.03293ZM16.4402 10.7158L13.4766 9.53033V15.3951C14.5165 14.8336 15.2652 14.1161 15.7227 13.2426C16.1594 12.3899 16.3986 11.5477 16.4402 10.7158Z" fill="#356DBB"/>
</svg>
