<svg width="18" height="18" viewBox="0 0 18 18" fill="none" xmlns="http://www.w3.org/2000/svg">
<path d="M1.8 3.59998C1.29375 3.61873 0.871875 3.79685 0.534375 4.13435C0.196875 4.47185 0.01875 4.89373 0 5.39998V12.6C0.01875 13.1062 0.196875 13.5281 0.534375 13.8656C0.871875 14.2031 1.29375 14.3812 1.8 14.4H7.65H16.2C16.7062 14.3812 17.1281 14.2031 17.4656 13.8656C17.8031 13.5281 17.9813 13.1062 18 12.6V5.39998C17.9813 4.89373 17.8031 4.47185 17.4656 4.13435C17.1281 3.79685 16.7062 3.61873 16.2 3.59998H9H1.8ZM16.2 4.94998C16.4812 4.96873 16.6313 5.11873 16.65 5.39998V12.6C16.6313 12.8812 16.4812 13.0312 16.2 13.05H9V4.94998H16.2ZM5.00625 6.74998L6.80625 10.8C6.91875 11.1187 6.825 11.3625 6.525 11.5312C6.20625 11.6437 5.9625 11.55 5.79375 11.25L5.54063 10.6875H3.45938L3.20625 11.25C3.0375 11.55 2.79375 11.6437 2.475 11.5312C2.175 11.3625 2.08125 11.1187 2.19375 10.8L3.99375 6.74998C4.0875 6.54373 4.25625 6.43123 4.5 6.41248C4.74375 6.43123 4.9125 6.54373 5.00625 6.74998ZM5.03437 9.56248L4.5 8.3531L3.96563 9.56248H5.03437ZM12.825 6.41248C12.4875 6.44998 12.3 6.63748 12.2625 6.97498V7.08748H10.8C10.4625 7.12498 10.275 7.31248 10.2375 7.64998C10.275 7.98748 10.4625 8.17498 10.8 8.21248H12.825H13.8094C13.6031 8.68123 13.3219 9.1031 12.9656 9.4781L12.5437 9.05623C12.2812 8.83123 12.0188 8.83123 11.7562 9.05623C11.5312 9.31873 11.5312 9.58123 11.7562 9.84373L12.0938 10.1812C11.925 10.2937 11.7563 10.3875 11.5875 10.4625L11.475 10.5187C11.175 10.6875 11.0813 10.9312 11.1937 11.25C11.3625 11.55 11.6063 11.6437 11.925 11.5312L12.0375 11.5031C12.375 11.3531 12.6938 11.1656 12.9938 10.9406C13.1062 11.0344 13.2281 11.1187 13.3594 11.1937L13.8938 11.5031C14.1938 11.6531 14.4469 11.5875 14.6531 11.3062C14.8031 11.0062 14.7375 10.7531 14.4563 10.5469L13.9219 10.2375C13.9219 10.2187 13.9125 10.2094 13.8938 10.2094C13.875 10.1906 13.8656 10.1812 13.8656 10.1812C14.3531 9.63748 14.7188 9.0281 14.9625 8.3531L15.0188 8.21248H15.075C15.4125 8.17498 15.6 7.98748 15.6375 7.64998C15.6 7.31248 15.4125 7.12498 15.075 7.08748H14.625H13.3875V6.97498C13.35 6.63748 13.1625 6.44998 12.825 6.41248Z" fill="#356DBB"/>
</svg>
