<svg width="24" height="24" viewBox="0 0 24 24" fill="none" xmlns="http://www.w3.org/2000/svg">
<rect x="1" y="1" width="22" height="22" rx="11" fill="#00745A" stroke="#1B4782" stroke-width="2"/>
<g clip-path="url(#clip0_287_1574)">
<path d="M9.91016 8.26953L9.71484 8.875H8.25C7.89844 8.88802 7.60547 9.01172 7.37109 9.24609C7.13672 9.48047 7.01302 9.77344 7 10.125V15.125C7.01302 15.4766 7.13672 15.7695 7.37109 16.0039C7.60547 16.2383 7.89844 16.362 8.25 16.375H15.75C16.1016 16.362 16.3945 16.2383 16.6289 16.0039C16.8633 15.7695 16.987 15.4766 17 15.125V10.125C16.987 9.77344 16.8633 9.48047 16.6289 9.24609C16.3945 9.01172 16.1016 8.88802 15.75 8.875H14.2852L14.0898 8.26953C13.9336 7.86589 13.6341 7.65104 13.1914 7.625H10.8086C10.3659 7.65104 10.0664 7.86589 9.91016 8.26953ZM12 10.75C12.3385 10.75 12.651 10.8346 12.9375 11.0039C13.224 11.1732 13.4518 11.401 13.6211 11.6875C13.7904 11.987 13.875 12.2995 13.875 12.625C13.875 12.9505 13.7904 13.263 13.6211 13.5625C13.4518 13.849 13.224 14.0768 12.9375 14.2461C12.651 14.4154 12.3385 14.5 12 14.5C11.6615 14.5 11.349 14.4154 11.0625 14.2461C10.776 14.0768 10.5482 13.849 10.3789 13.5625C10.2096 13.263 10.125 12.9505 10.125 12.625C10.125 12.2995 10.2096 11.987 10.3789 11.6875C10.5482 11.401 10.776 11.1732 11.0625 11.0039C11.349 10.8346 11.6615 10.75 12 10.75Z" fill="white"/>
</g>
<defs>
<clipPath id="clip0_287_1574">
<rect width="10" height="10" fill="white" transform="translate(7 7)"/>
</clipPath>
</defs>
</svg>
