<svg width="45" height="44" viewBox="0 0 45 44" fill="none" xmlns="http://www.w3.org/2000/svg">
<rect x="0.5" width="44" height="44" rx="10" fill="url(#paint0_linear_287_1563)"/>
<rect x="0.5" width="44" height="44" rx="10" fill="url(#paint1_radial_287_1563)"/>
<path d="M27.5625 28.75V18.625H24.75C24.4219 18.625 24.1523 18.5195 23.9414 18.3086C23.7305 18.0977 23.625 17.8281 23.625 17.5V14.6875H18C17.6484 14.7109 17.4609 14.8984 17.4375 15.25V28.75C17.4609 29.1016 17.6484 29.2891 18 29.3125H27C27.3516 29.2891 27.5391 29.1016 27.5625 28.75ZM15.75 15.25C15.7734 14.6172 15.9961 14.0898 16.418 13.668C16.8398 13.2461 17.3672 13.0234 18 13H23.8359C24.4453 13 24.9727 13.2227 25.418 13.668L28.582 16.832C29.0273 17.2773 29.25 17.8164 29.25 18.4492V28.75C29.2266 29.3828 29.0039 29.9102 28.582 30.332C28.1602 30.7539 27.6328 30.9766 27 31H18C17.3672 30.9766 16.8398 30.7539 16.418 30.332C15.9961 29.9102 15.7734 29.3828 15.75 28.75V15.25ZM22.5 20.5938C22.9219 20.6172 23.1562 20.8516 23.2031 21.2969V21.6484C23.4609 21.6719 23.707 21.7188 23.9414 21.7891C24.3398 21.9297 24.5156 22.2109 24.4688 22.6328C24.3281 23.0312 24.0352 23.207 23.5898 23.1602C23.2148 23.0664 22.8516 23.0078 22.5 22.9844C22.1953 22.9844 21.9258 23.043 21.6914 23.1602C21.5508 23.2539 21.4922 23.3242 21.5156 23.3711C21.5156 23.3945 21.5625 23.4297 21.6562 23.4766C21.8906 23.5938 22.2188 23.6992 22.6406 23.793C22.6641 23.8164 22.6758 23.8281 22.6758 23.8281H22.7109C23.1328 23.9219 23.5664 24.0742 24.0117 24.2852C24.2227 24.4023 24.4219 24.5781 24.6094 24.8125C24.7734 25.0234 24.8672 25.3047 24.8906 25.6562C24.8438 26.3828 24.5391 26.8867 23.9766 27.168C23.7422 27.3086 23.4844 27.4023 23.2031 27.4492V27.8008C23.1562 28.2227 22.9219 28.457 22.5 28.5039C22.0781 28.457 21.8438 28.2227 21.7969 27.8008V27.4141C21.4688 27.3438 21.1641 27.2617 20.8828 27.168C20.8594 27.168 20.8359 27.1562 20.8125 27.1328C20.7656 27.1328 20.7305 27.1211 20.707 27.0977C20.6602 27.0977 20.625 27.0977 20.6016 27.0977C20.2031 26.9336 20.0508 26.6406 20.1445 26.2188C20.3086 25.8203 20.6016 25.6562 21.0234 25.7266C21.0703 25.75 21.1289 25.7734 21.1992 25.7969C21.2227 25.7969 21.2461 25.7969 21.2695 25.7969C21.7148 25.9609 22.1367 26.0547 22.5352 26.0781C22.8633 26.0781 23.1211 26.0312 23.3086 25.9375C23.4492 25.8438 23.5078 25.7617 23.4844 25.6914C23.5078 25.668 23.4492 25.6094 23.3086 25.5156C23.0742 25.3984 22.7461 25.2812 22.3242 25.1641H22.2539C21.832 25.0703 21.4219 24.918 21.0234 24.707C20.7891 24.5898 20.5781 24.4258 20.3906 24.2148C20.2266 24.0039 20.1328 23.7227 20.1094 23.3711C20.1094 22.9961 20.2031 22.6914 20.3906 22.457C20.5781 22.1992 20.8008 22.0117 21.0586 21.8945C21.293 21.7773 21.5391 21.6953 21.7969 21.6484V21.2969C21.8438 20.8516 22.0781 20.6172 22.5 20.5938ZM19.125 16.375H21.9375C22.2891 16.3984 22.4766 16.5859 22.5 16.9375C22.4766 17.2891 22.2891 17.4766 21.9375 17.5H19.125C18.7734 17.4766 18.5859 17.2891 18.5625 16.9375C18.5859 16.5859 18.7734 16.3984 19.125 16.375ZM19.125 18.625H21.9375C22.2891 18.6484 22.4766 18.8359 22.5 19.1875C22.4766 19.5391 22.2891 19.7266 21.9375 19.75H19.125C18.7734 19.7266 18.5859 19.5391 18.5625 19.1875C18.5859 18.8359 18.7734 18.6484 19.125 18.625Z" fill="white"/>
<defs>
<linearGradient id="paint0_linear_287_1563" x1="44.5" y1="22" x2="0.5" y2="22" gradientUnits="userSpaceOnUse">
<stop stop-color="#053576" stop-opacity="0.1"/>
<stop offset="1" stop-color="#356DBB" stop-opacity="0.05"/>
</linearGradient>
<radialGradient id="paint1_radial_287_1563" cx="0" cy="0" r="1" gradientUnits="userSpaceOnUse" gradientTransform="translate(42.2044 2.2) rotate(154.603) scale(46.1659 44.8274)">
<stop stop-color="#5C8BCE"/>
<stop offset="1" stop-color="#356DBB"/>
</radialGradient>
</defs>
</svg>
