<svg width="18" height="18" viewBox="0 0 18 18" fill="none" xmlns="http://www.w3.org/2000/svg">
<g clip-path="url(#clip0_287_1591)">
<path d="M8.9999 0C9.60927 0 10.1952 0.0585938 10.7577 0.175781C10.8983 0.199219 11.0741 0.257812 11.2851 0.351562C11.4726 0.46875 11.6366 0.644531 11.7772 0.878906C11.8476 0.996094 11.9061 1.13672 11.953 1.30078L12.2694 2.63672C12.3163 2.75391 12.3983 2.84766 12.5155 2.91797C12.6327 2.98828 12.7499 3.01172 12.8671 2.98828L14.203 2.60156C14.3436 2.55469 14.4843 2.53125 14.6249 2.53125C14.9061 2.53125 15.1405 2.58984 15.328 2.70703C15.539 2.82422 15.6913 2.94141 15.7851 3.05859C16.5585 3.94922 17.1327 4.96875 17.5077 6.11719C17.578 6.25781 17.6132 6.43359 17.6132 6.64453C17.6366 6.87891 17.578 7.11328 17.4374 7.34766C17.3436 7.46484 17.2499 7.58203 17.1561 7.69922L16.1366 8.64844C16.0663 8.74219 16.0311 8.85938 16.0311 9C16.0311 9.14062 16.0663 9.25781 16.1366 9.35156L17.1561 10.3008C17.2499 10.418 17.3436 10.5352 17.4374 10.6523C17.5546 10.9102 17.6132 11.1445 17.6132 11.3555C17.6132 11.5898 17.578 11.7656 17.5077 11.8828C17.1327 13.0312 16.5585 14.0508 15.7851 14.9414C15.6913 15.0586 15.539 15.1758 15.328 15.293C15.1405 15.4102 14.9061 15.4688 14.6249 15.4688C14.4843 15.4688 14.3436 15.4453 14.203 15.3984L12.8671 15.0117C12.7499 14.9883 12.6327 15.0117 12.5155 15.082C12.3983 15.1523 12.3163 15.2461 12.2694 15.3633L11.953 16.6992C11.9061 16.8633 11.8476 17.0039 11.7772 17.1211C11.6366 17.3555 11.4726 17.5312 11.2851 17.6484C11.0741 17.7422 10.8983 17.8008 10.7577 17.8242C10.1952 17.9414 9.60927 18 8.9999 18C8.39052 18 7.80458 17.9414 7.24208 17.8242C7.10146 17.8008 6.92568 17.7422 6.71474 17.6484C6.52724 17.5312 6.36318 17.3555 6.22255 17.1211C6.15224 17.0039 6.09365 16.8633 6.04677 16.6992L5.73036 15.3633C5.68349 15.2461 5.60146 15.1523 5.48427 15.082C5.36708 15.0117 5.2499 14.9883 5.13271 15.0117L3.79677 15.3984C3.65615 15.4453 3.51552 15.4688 3.3749 15.4688C3.09365 15.4688 2.85927 15.4102 2.67177 15.293C2.46083 15.1758 2.32021 15.0586 2.2499 14.9414C1.45302 14.0508 0.867083 13.0312 0.492083 11.8828C0.42177 11.7422 0.386614 11.5664 0.386614 11.3555C0.363177 11.1211 0.42177 10.8867 0.562395 10.6523C0.656145 10.5352 0.749895 10.418 0.843645 10.3008L1.86318 9.35156C1.93349 9.25781 1.96865 9.14062 1.96865 9C1.96865 8.85938 1.93349 8.74219 1.86318 8.64844L0.843645 7.69922C0.749895 7.58203 0.656145 7.46484 0.562395 7.34766C0.42177 7.08984 0.363177 6.85547 0.386614 6.64453C0.386614 6.41016 0.42177 6.23438 0.492083 6.11719C0.867083 4.99219 1.45302 3.97266 2.2499 3.05859C2.32021 2.94141 2.46083 2.82422 2.67177 2.70703C2.85927 2.58984 3.09365 2.53125 3.3749 2.53125C3.51552 2.53125 3.65615 2.55469 3.79677 2.60156L5.13271 2.98828C5.2499 3.01172 5.36708 2.98828 5.48427 2.91797C5.60146 2.84766 5.68349 2.75391 5.73036 2.63672L6.04677 1.30078C6.09365 1.13672 6.15224 0.996094 6.22255 0.878906C6.36318 0.644531 6.52724 0.46875 6.71474 0.351562C6.92568 0.257812 7.10146 0.199219 7.24208 0.175781C7.80458 0.0585938 8.39052 0 8.9999 0ZM7.66396 1.79297L7.38271 3.05859C7.21865 3.62109 6.86708 4.05469 6.32802 4.35938C5.78896 4.66406 5.22646 4.74609 4.64052 4.60547L3.44521 4.25391C2.85927 4.93359 2.41396 5.70703 2.10927 6.57422L3.02333 7.45312C3.44521 7.875 3.65615 8.39062 3.65615 9C3.65615 9.60938 3.44521 10.1367 3.02333 10.582L2.10927 11.4258C2.41396 12.293 2.85927 13.0664 3.44521 13.7461L4.67568 13.3945C5.23818 13.2305 5.78896 13.3125 6.32802 13.6406C6.86708 13.9453 7.21865 14.3789 7.38271 14.9414L7.66396 16.207C8.55458 16.3477 9.44521 16.3477 10.3358 16.207L10.6522 14.9414C10.8163 14.3789 11.1561 13.9453 11.6718 13.6406C12.2108 13.3359 12.7733 13.2539 13.3593 13.3945L14.5546 13.7461C15.1405 13.0664 15.5858 12.293 15.8905 11.4258L14.9765 10.5469C14.5546 10.125 14.3436 9.60938 14.3436 9C14.3436 8.39062 14.5546 7.86328 14.9765 7.41797L15.8905 6.57422C15.5858 5.70703 15.1405 4.93359 14.5546 4.25391L13.3593 4.60547C12.7733 4.76953 12.2108 4.6875 11.6718 4.35938C11.1561 4.05469 10.8163 3.60938 10.6522 3.02344L10.3358 1.79297C9.44521 1.65234 8.55458 1.65234 7.66396 1.79297ZM7.3124 9C7.33583 9.63281 7.61708 10.125 8.15615 10.4766C8.71865 10.7578 9.28115 10.7578 9.84365 10.4766C10.3827 10.125 10.664 9.63281 10.6874 9C10.664 8.36719 10.3827 7.875 9.84365 7.52344C9.28115 7.24219 8.71865 7.24219 8.15615 7.52344C7.61708 7.875 7.33583 8.36719 7.3124 9ZM8.9999 12.375C8.39052 12.375 7.82802 12.2227 7.3124 11.918C6.79677 11.6133 6.38661 11.2031 6.08193 10.6875C5.77724 10.1484 5.6249 9.58594 5.6249 9C5.6249 8.41406 5.77724 7.85156 6.08193 7.3125C6.38661 6.79688 6.79677 6.38672 7.3124 6.08203C7.82802 5.77734 8.39052 5.625 8.9999 5.625C9.60927 5.625 10.1718 5.77734 10.6874 6.08203C11.203 6.38672 11.6132 6.79688 11.9179 7.3125C12.2226 7.85156 12.3749 8.41406 12.3749 9C12.3749 9.58594 12.2226 10.1484 11.9179 10.6875C11.6132 11.2031 11.203 11.6133 10.6874 11.918C10.1718 12.2227 9.60927 12.375 8.9999 12.375Z" fill="white"/>
</g>
<defs>
<clipPath id="clip0_287_1591">
<rect width="18" height="18" fill="white"/>
</clipPath>
</defs>
</svg>
