<svg width="12" height="12" viewBox="0 0 12 12" fill="none" xmlns="http://www.w3.org/2000/svg">
<g clip-path="url(#clip0_287_1515)">
<path d="M6.64897 0.615097C6.51465 0.361366 6.29823 0.227038 5.99972 0.212112C5.71614 0.227038 5.49972 0.361366 5.35047 0.615097L3.91763 3.57032L0.69375 4.06286C0.410168 4.10763 0.223601 4.26435 0.134048 4.53301C0.0444963 4.81659 0.104198 5.06286 0.313153 5.27181L2.64151 7.57778L2.08181 10.8464C2.05196 11.13 2.14897 11.3614 2.37285 11.5405C2.61166 11.7046 2.86539 11.7196 3.13405 11.5852L5.99972 10.0629L8.88778 11.5852C9.14151 11.7196 9.38778 11.7046 9.62659 11.5405C9.86539 11.3614 9.96241 11.13 9.91763 10.8464L9.38032 7.57778L11.7087 5.27181C11.9027 5.06286 11.9624 4.81659 11.8878 4.53301C11.7833 4.26435 11.5893 4.10763 11.3057 4.06286L8.08181 3.57032L6.64897 0.615097Z" fill="white"/>
</g>
<defs>
<clipPath id="clip0_287_1515">
<rect width="12" height="12" fill="white"/>
</clipPath>
</defs>
</svg>
