<svg width="45" height="44" viewBox="0 0 45 44" fill="none" xmlns="http://www.w3.org/2000/svg">
<rect x="0.5" width="44" height="44" rx="10" fill="url(#paint0_linear_287_1569)"/>
<rect x="0.5" width="44" height="44" rx="10" fill="url(#paint1_radial_287_1569)"/>
<g clip-path="url(#clip0_287_1569)">
<path d="M15.1875 22C15.2344 19.9375 15.9492 18.2148 17.332 16.832C18.7148 15.4492 20.4375 14.7344 22.5 14.6875C24.5625 14.7344 26.2852 15.4492 27.668 16.832C29.0508 18.2148 29.7656 19.9375 29.8125 22V27.0625C29.8125 27.4609 29.6719 27.7891 29.3906 28.0469C29.1328 28.3281 28.8047 28.4688 28.4062 28.4688H24.5391C24.2109 27.9297 23.7188 27.6484 23.0625 27.625H21.9375C21.4688 27.6484 21.0703 27.8125 20.7422 28.1172C20.4375 28.4453 20.2734 28.8438 20.25 29.3125C20.2734 29.7812 20.4375 30.1797 20.7422 30.5078C21.0703 30.8125 21.4688 30.9766 21.9375 31H23.0625C23.7188 30.9766 24.2109 30.6953 24.5391 30.1562H28.4062C29.2734 30.1328 30 29.8281 30.5859 29.2422C31.1719 28.6562 31.4766 27.9297 31.5 27.0625V22C31.4766 20.3125 31.0664 18.8008 30.2695 17.4648C29.4727 16.1055 28.3945 15.0273 27.0352 14.2305C25.6992 13.4336 24.1875 13.0234 22.5 13C20.8125 13.0234 19.3008 13.4336 17.9648 14.2305C16.6055 15.0273 15.5273 16.1055 14.7305 17.4648C13.9336 18.8008 13.5234 20.3125 13.5 22V23.4062C13.5469 23.9219 13.8281 24.2031 14.3438 24.25C14.8594 24.2031 15.1406 23.9219 15.1875 23.4062V22ZM19.125 20.875V24.8125C18.7969 24.8125 18.5273 24.707 18.3164 24.4961C18.1055 24.2852 18 24.0156 18 23.6875V22C18 21.6719 18.1055 21.4023 18.3164 21.1914C18.5273 20.9805 18.7969 20.875 19.125 20.875ZM16.3125 22V23.6875C16.3359 24.4844 16.6055 25.1523 17.1211 25.6914C17.6602 26.207 18.3281 26.4766 19.125 26.5H19.6875C20.0156 26.5 20.2852 26.3945 20.4961 26.1836C20.707 25.9727 20.8125 25.7031 20.8125 25.375V20.3125C20.8125 19.9844 20.707 19.7148 20.4961 19.5039C20.2852 19.293 20.0156 19.1875 19.6875 19.1875H19.125C18.3281 19.2109 17.6602 19.4805 17.1211 19.9961C16.6055 20.5352 16.3359 21.2031 16.3125 22ZM25.875 20.875C26.2031 20.875 26.4727 20.9805 26.6836 21.1914C26.8945 21.4023 27 21.6719 27 22V23.6875C27 24.0156 26.8945 24.2852 26.6836 24.4961C26.4727 24.707 26.2031 24.8125 25.875 24.8125V20.875ZM28.6875 22C28.6641 21.2031 28.3945 20.5352 27.8789 19.9961C27.3398 19.4805 26.6719 19.2109 25.875 19.1875H25.3125C24.9844 19.1875 24.7148 19.293 24.5039 19.5039C24.293 19.7148 24.1875 19.9844 24.1875 20.3125V25.375C24.1875 25.7031 24.293 25.9727 24.5039 26.1836C24.7148 26.3945 24.9844 26.5 25.3125 26.5H25.875C26.6719 26.4766 27.3398 26.207 27.8789 25.6914C28.3945 25.1523 28.6641 24.4844 28.6875 23.6875V22Z" fill="white"/>
</g>
<defs>
<linearGradient id="paint0_linear_287_1569" x1="44.5" y1="22" x2="0.5" y2="22" gradientUnits="userSpaceOnUse">
<stop stop-color="#053576" stop-opacity="0.1"/>
<stop offset="1" stop-color="#356DBB" stop-opacity="0.05"/>
</linearGradient>
<radialGradient id="paint1_radial_287_1569" cx="0" cy="0" r="1" gradientUnits="userSpaceOnUse" gradientTransform="translate(42.2044 2.2) rotate(154.603) scale(46.1659 44.8274)">
<stop stop-color="#5C8BCE"/>
<stop offset="1" stop-color="#356DBB"/>
</radialGradient>
<clipPath id="clip0_287_1569">
<rect width="18" height="18" fill="white" transform="translate(13.5 13)"/>
</clipPath>
</defs>
</svg>
