<svg width="18" height="18" viewBox="0 0 18 18" fill="none" xmlns="http://www.w3.org/2000/svg">
<path d="M7.05148 2.69196C6.16755 4.08482 5.72559 5.65179 5.72559 7.39286C5.75237 9.40179 6.31487 11.1562 7.41309 12.6562C8.5113 14.183 9.95773 15.2679 11.7524 15.9107C11.2434 16.0179 10.7211 16.0714 10.1854 16.0714C8.20326 16.0179 6.54255 15.3214 5.20326 13.9821C3.89076 12.6696 3.20773 11.0089 3.15416 9C3.18094 7.60714 3.54255 6.34821 4.23898 5.22321C4.93541 4.125 5.87291 3.28125 7.05148 2.69196ZM9.54255 0.0401786C7.15862 0.254464 5.18987 1.19196 3.6363 2.85268C2.08273 4.51339 1.27916 6.5625 1.22559 9C1.25237 10.6875 1.66755 12.2009 2.47112 13.5402C3.24791 14.9062 4.31934 15.9777 5.68541 16.7545C7.02469 17.558 8.53809 17.9732 10.2256 18C12.1542 17.9732 13.8684 17.4241 15.3684 16.3527C15.422 16.3259 15.4622 16.2991 15.489 16.2723C15.5158 16.2455 15.5426 16.2188 15.5693 16.192C15.7836 16.058 15.9711 15.9107 16.1318 15.75C16.239 15.6429 16.3461 15.5491 16.4533 15.4688C16.6676 15.2277 16.7077 14.9732 16.5738 14.7054C16.4399 14.4375 16.2122 14.3304 15.8908 14.3839C15.7568 14.3839 15.6095 14.3973 15.4488 14.4241C15.2613 14.4509 15.0604 14.4643 14.8461 14.4643C14.7926 14.4643 14.739 14.4643 14.6854 14.4643C12.6765 14.4107 11.0158 13.7143 9.70326 12.375C8.39076 11.0625 7.70773 9.40179 7.65416 7.39286C7.65416 6.29464 7.88184 5.27679 8.33719 4.33929C8.79255 3.40179 9.42201 2.59821 10.2256 1.92857C10.2524 1.90179 10.2792 1.875 10.3059 1.84821C10.3059 1.84821 10.3193 1.84821 10.3461 1.84821C10.5068 1.71429 10.6676 1.59375 10.8283 1.48661C10.9622 1.37946 11.0961 1.29911 11.23 1.24554C11.4979 1.08482 11.6051 0.84375 11.5515 0.522321C11.4711 0.254464 11.2702 0.09375 10.9488 0.0401786C10.8149 0.0133929 10.6809 0 10.547 0C10.4399 0 10.3327 0 10.2256 0C10.0917 0 9.95773 0 9.8238 0C9.71666 0.0267857 9.62291 0.0401786 9.54255 0.0401786Z" fill="#356DBB"/>
</svg>
