<svg width="16" height="16" viewBox="0 0 16 16" fill="none" xmlns="http://www.w3.org/2000/svg">
<path d="M1.5 2.5V4H14.5V2.5H1.5ZM1 1H15C15.2917 1 15.5312 1.09375 15.7188 1.28125C15.9062 1.46875 16 1.70833 16 2V4.5C16 4.79167 15.9062 5.03125 15.7188 5.21875C15.5312 5.40625 15.2917 5.5 15 5.5H1C0.708333 5.5 0.46875 5.40625 0.28125 5.21875C0.09375 5.03125 0 4.79167 0 4.5V2C0 1.70833 0.09375 1.46875 0.28125 1.28125C0.46875 1.09375 0.708333 1 1 1ZM5 7.75C5.04167 7.29167 5.29167 7.04167 5.75 7H10.25C10.7083 7.04167 10.9583 7.29167 11 7.75C10.9583 8.20833 10.7083 8.45833 10.25 8.5H5.75C5.29167 8.45833 5.04167 8.20833 5 7.75ZM1 13V6.5H2.5V13C2.52083 13.3125 2.6875 13.4792 3 13.5H13C13.3125 13.4792 13.4792 13.3125 13.5 13V6.5H15V13C14.9792 13.5625 14.7812 14.0312 14.4062 14.4062C14.0312 14.7812 13.5625 14.9792 13 15H3C2.4375 14.9792 1.96875 14.7812 1.59375 14.4062C1.21875 14.0312 1.02083 13.5625 1 13Z" fill="#2D2E2F"/>
</svg>
