<svg width="18" height="18" viewBox="0 0 18 18" fill="none" xmlns="http://www.w3.org/2000/svg">
<g clip-path="url(#clip0_321_13973)">
<path d="M0 14.625C0.046875 15.1406 0.328125 15.4219 0.84375 15.4688H2.95312C3.14062 16.0547 3.46875 16.5234 3.9375 16.875C4.42969 17.25 4.99219 17.4375 5.625 17.4375C6.25781 17.4375 6.82031 17.25 7.3125 16.875C7.78125 16.5234 8.10938 16.0547 8.29688 15.4688H17.1562C17.6719 15.4219 17.9531 15.1406 18 14.625C17.9531 14.1094 17.6719 13.8281 17.1562 13.7812H8.29688C8.10938 13.1953 7.78125 12.7266 7.3125 12.375C6.82031 12 6.25781 11.8125 5.625 11.8125C4.99219 11.8125 4.42969 12 3.9375 12.375C3.46875 12.7266 3.14062 13.1953 2.95312 13.7812H0.84375C0.328125 13.8281 0.046875 14.1094 0 14.625ZM4.5 14.625C4.5 14.2969 4.60547 14.0273 4.81641 13.8164C5.02734 13.6055 5.29688 13.5 5.625 13.5C5.95312 13.5 6.22266 13.6055 6.43359 13.8164C6.64453 14.0273 6.75 14.2969 6.75 14.625C6.75 14.9531 6.64453 15.2227 6.43359 15.4336C6.22266 15.6445 5.95312 15.75 5.625 15.75C5.29688 15.75 5.02734 15.6445 4.81641 15.4336C4.60547 15.2227 4.5 14.9531 4.5 14.625ZM11.25 9C11.25 8.67188 11.3555 8.40234 11.5664 8.19141C11.7773 7.98047 12.0469 7.875 12.375 7.875C12.7031 7.875 12.9727 7.98047 13.1836 8.19141C13.3945 8.40234 13.5 8.67188 13.5 9C13.5 9.32812 13.3945 9.59766 13.1836 9.80859C12.9727 10.0195 12.7031 10.125 12.375 10.125C12.0469 10.125 11.7773 10.0195 11.5664 9.80859C11.3555 9.59766 11.25 9.32812 11.25 9ZM12.375 6.1875C11.7422 6.1875 11.1797 6.375 10.6875 6.75C10.2188 7.10156 9.89062 7.57031 9.70312 8.15625H0.84375C0.328125 8.20312 0.046875 8.48438 0 9C0.046875 9.51562 0.328125 9.79688 0.84375 9.84375H9.70312C9.89062 10.4297 10.2188 10.8984 10.6875 11.25C11.1797 11.625 11.7422 11.8125 12.375 11.8125C13.0078 11.8125 13.5703 11.625 14.0625 11.25C14.5312 10.8984 14.8594 10.4297 15.0469 9.84375H17.1562C17.6719 9.79688 17.9531 9.51562 18 9C17.9531 8.48438 17.6719 8.20312 17.1562 8.15625H15.0469C14.8594 7.57031 14.5312 7.10156 14.0625 6.75C13.5703 6.375 13.0078 6.1875 12.375 6.1875ZM6.75 4.5C6.42188 4.5 6.15234 4.39453 5.94141 4.18359C5.73047 3.97266 5.625 3.70312 5.625 3.375C5.625 3.04688 5.73047 2.77734 5.94141 2.56641C6.15234 2.35547 6.42188 2.25 6.75 2.25C7.07812 2.25 7.34766 2.35547 7.55859 2.56641C7.76953 2.77734 7.875 3.04688 7.875 3.375C7.875 3.70312 7.76953 3.97266 7.55859 4.18359C7.34766 4.39453 7.07812 4.5 6.75 4.5ZM9.42188 2.53125C9.23438 1.94531 8.90625 1.47656 8.4375 1.125C7.94531 0.75 7.38281 0.5625 6.75 0.5625C6.11719 0.5625 5.55469 0.75 5.0625 1.125C4.59375 1.47656 4.26562 1.94531 4.07812 2.53125H0.84375C0.328125 2.57812 0.046875 2.85938 0 3.375C0.046875 3.89062 0.328125 4.17188 0.84375 4.21875H4.07812C4.26562 4.80469 4.59375 5.27344 5.0625 5.625C5.55469 6 6.11719 6.1875 6.75 6.1875C7.38281 6.1875 7.94531 6 8.4375 5.625C8.90625 5.27344 9.23438 4.80469 9.42188 4.21875H17.1562C17.6719 4.17188 17.9531 3.89062 18 3.375C17.9531 2.85938 17.6719 2.57812 17.1562 2.53125H9.42188Z" fill="#2D2E2F"/>
</g>
<defs>
<clipPath id="clip0_321_13973">
<rect width="18" height="18" fill="white"/>
</clipPath>
</defs>
</svg>
