<svg width="16" height="16" viewBox="0 0 16 16" fill="none" xmlns="http://www.w3.org/2000/svg">
<g clip-path="url(#clip0_321_13815)">
<path d="M13.4787 2.36576L13.1363 2.70818C12.244 3.57977 11.2271 4.2646 10.0857 4.76265C8.9651 5.23995 7.77185 5.49936 6.50596 5.54086V9.5253C7.77185 9.5668 8.9651 9.82621 10.0857 10.3035C11.2271 10.8016 12.244 11.4864 13.1363 12.358L13.4787 12.7004V2.36576ZM5.01179 4.0467H6.28806C7.38793 4.0467 8.43592 3.83918 9.43203 3.42413C10.4281 3.00908 11.3101 2.41764 12.0779 1.64981L13.2608 0.466932C13.6136 0.155648 13.9768 0.0830146 14.3503 0.249033C14.7239 0.394299 14.9314 0.695206 14.9729 1.15176V5.66537C15.2634 5.81064 15.5021 6.04929 15.6888 6.38133C15.8756 6.71336 15.969 7.09728 15.969 7.53308C15.969 7.96888 15.8756 8.35279 15.6888 8.68483C15.5021 9.01687 15.2634 9.25552 14.9729 9.40078V13.9144C14.9314 14.371 14.7239 14.6719 14.3503 14.8171C13.9768 14.9831 13.6136 14.9105 13.2608 14.5992L12.0779 13.4163C11.3309 12.6693 10.48 12.0882 9.52541 11.6732C8.57081 11.2789 7.56432 11.061 6.50596 11.0195V14.2568C6.48521 14.7549 6.31919 15.1699 6.0079 15.502C5.67587 15.8132 5.26082 15.9793 4.76277 16H3.76666C3.2686 15.9793 2.85356 15.8132 2.52152 15.502C2.21024 15.1699 2.04422 14.7549 2.02347 14.2568V11.0195C1.46316 10.9987 0.99623 10.8016 0.62269 10.428C0.249149 10.0545 0.0520023 9.58755 0.03125 9.02724V6.03892C0.0520023 5.4786 0.249149 5.01168 0.62269 4.63814C0.99623 4.2646 1.46316 4.06745 2.02347 4.0467H5.01179ZM3.51763 11.0195V14.2568C3.53838 14.4021 3.62139 14.4851 3.76666 14.5058H4.76277C4.90803 14.4851 4.99104 14.4021 5.01179 14.2568V11.0195H3.51763ZM2.02347 5.54086C1.71218 5.56161 1.54617 5.72763 1.52541 6.03892V9.02724C1.54617 9.33853 1.71218 9.50455 2.02347 9.5253H3.51763H5.01179V5.54086H2.02347Z" fill="#2D2E2F"/>
</g>
<defs>
<clipPath id="clip0_321_13815">
<rect width="16" height="16" fill="white"/>
</clipPath>
</defs>
</svg>
