<svg width="18" height="18" viewBox="0 0 18 18" fill="none" xmlns="http://www.w3.org/2000/svg">
<rect width="18" height="18" rx="9" fill="#25C73D"/>
<path fill-rule="evenodd" clip-rule="evenodd" d="M10.368 4C10.6199 4.00006 10.8653 4.07782 11.0696 4.22224C11.2739 4.36666 11.4266 4.57044 11.5062 4.80471L11.832 5.76471H13.2C13.6774 5.76471 14.1352 5.95063 14.4728 6.28158C14.8104 6.61252 15 7.06138 15 7.52941V12.2353C15 12.7033 14.8104 13.1522 14.4728 13.4831C14.1352 13.8141 13.6774 14 13.2 14H4.8C4.32261 14 3.86477 13.8141 3.52721 13.4831C3.18964 13.1522 3 12.7033 3 12.2353V7.52941C3 7.06138 3.18964 6.61252 3.52721 6.28158C3.86477 5.95063 4.32261 5.76471 4.8 5.76471H6.168L6.4938 4.80471C6.57342 4.57035 6.72626 4.3665 6.93066 4.22207C7.13506 4.07763 7.38064 3.99994 7.6326 4H10.368ZM10.368 5.17647H7.632L7.3062 6.13647C7.22658 6.37083 7.07374 6.57468 6.86934 6.71911C6.66494 6.86354 6.41936 6.94124 6.1674 6.94118H4.8C4.64087 6.94118 4.48826 7.00315 4.37574 7.11347C4.26321 7.22378 4.2 7.3734 4.2 7.52941V12.2353C4.2 12.3913 4.26321 12.5409 4.37574 12.6512C4.48826 12.7616 4.64087 12.8235 4.8 12.8235H13.2C13.3591 12.8235 13.5117 12.7616 13.6243 12.6512C13.7368 12.5409 13.8 12.3913 13.8 12.2353V7.52941C13.8 7.3734 13.7368 7.22378 13.6243 7.11347C13.5117 7.00315 13.3591 6.94118 13.2 6.94118H11.832C11.5801 6.94111 11.3347 6.86336 11.1304 6.71894C10.9261 6.57451 10.7734 6.37074 10.6938 6.13647L10.368 5.17647ZM7.5 9.58823C7.5 9.19821 7.65804 8.82416 7.93934 8.54837C8.22064 8.27258 8.60218 8.11765 9 8.11765C9.39782 8.11765 9.77936 8.27258 10.0607 8.54837C10.342 8.82416 10.5 9.19821 10.5 9.58823C10.5 9.97826 10.342 10.3523 10.0607 10.6281C9.77936 10.9039 9.39782 11.0588 9 11.0588C8.60218 11.0588 8.22064 10.9039 7.93934 10.6281C7.65804 10.3523 7.5 9.97826 7.5 9.58823ZM9 6.94118C8.28392 6.94118 7.59716 7.22006 7.09081 7.71648C6.58446 8.2129 6.3 8.88619 6.3 9.58823C6.3 10.2903 6.58446 10.9636 7.09081 11.46C7.59716 11.9564 8.28392 12.2353 9 12.2353C9.71608 12.2353 10.4028 11.9564 10.9092 11.46C11.4155 10.9636 11.7 10.2903 11.7 9.58823C11.7 8.88619 11.4155 8.2129 10.9092 7.71648C10.4028 7.22006 9.71608 6.94118 9 6.94118Z" fill="white"/>
</svg>
