<svg width="12" height="12" viewBox="0 0 12 12" fill="none" xmlns="http://www.w3.org/2000/svg">
<g clip-path="url(#clip0_276_6220)">
<path d="M5.07693 2.12305C5.09231 1.76921 5.24616 1.49998 5.53846 1.31536C5.84616 1.16152 6.15385 1.16152 6.46154 1.31536C6.75385 1.49998 6.90769 1.76921 6.92308 2.12305C6.90769 2.4769 6.75385 2.74613 6.46154 2.93075C6.15385 3.08459 5.84616 3.08459 5.53846 2.93075C5.24616 2.74613 5.09231 2.4769 5.07693 2.12305ZM7.8 3.04613C7.95385 2.76921 8.03077 2.46152 8.03077 2.12305C8.01539 1.55382 7.81539 1.0769 7.43077 0.692285C7.04616 0.30767 6.56923 0.10767 6 0.0922852C5.43077 0.10767 4.95385 0.30767 4.56923 0.692285C4.18462 1.0769 3.98462 1.55382 3.96923 2.12305C3.96923 2.46152 4.04616 2.76921 4.2 3.04613H2.86154C2.6 3.04613 2.36923 3.12305 2.16923 3.2769C1.98462 3.43075 1.85385 3.63075 1.77692 3.8769L0.115386 10.5231C0.0384633 10.8769 0.107694 11.2 0.323079 11.4923C0.553848 11.7692 0.846156 11.9077 1.2 11.9077H10.8C11.1538 11.9077 11.4462 11.7692 11.6769 11.4923C11.8923 11.2 11.9615 10.8769 11.8846 10.5231L10.2231 3.8769C10.1462 3.63075 10.0154 3.43075 9.83077 3.2769C9.63077 3.12305 9.4 3.04613 9.13846 3.04613H7.8ZM6 4.15382H9.13846L10.8 10.8H1.2L2.86154 4.15382H6Z" fill="#356DBB"/>
</g>
<defs>
<clipPath id="clip0_276_6220">
<rect width="12" height="12" fill="white"/>
</clipPath>
</defs>
</svg>
