<svg width="24" height="21" viewBox="0 0 24 21" fill="none" xmlns="http://www.w3.org/2000/svg">
<path d="M0.116505 7.3301C-0.038835 7.69255 -0.038835 8.04207 0.116505 8.37864C0.245955 8.71521 0.504854 8.94822 0.893204 9.07767L7.2233 10.8641C7.81877 10.9935 8.29774 10.8123 8.66019 10.3204L11.8835 4.92233L2.36893 3.71844C2.08414 3.71844 1.87702 3.83495 1.74757 4.06796L0.116505 7.3301ZM11.8835 4.92233L15.1068 10.3204C15.4693 10.8123 15.9482 10.9935 16.5437 10.8641L22.8738 9.07767C23.2621 8.94822 23.521 8.71521 23.6505 8.37864C23.8058 8.04207 23.8058 7.69255 23.6505 7.3301L22.0194 4.06796C21.89 3.83495 21.6828 3.71844 21.3981 3.71844L11.8835 4.92233ZM19.9612 11.1748V17.1553L12.8155 18.9417V9.58252C12.7638 9.01294 12.4531 8.70226 11.8835 8.65048C11.3139 8.70226 11.0032 9.01294 10.9515 9.58252V18.9417L3.80583 17.1553V11.1748L1.94175 10.6699V17.1553C1.94175 17.5696 2.0712 17.945 2.3301 18.2816C2.589 18.6181 2.92557 18.8382 3.33981 18.9417L11.301 20.9223C11.6893 21.0259 12.0906 21.0259 12.5049 20.9223L20.4272 18.9417C20.8414 18.8382 21.178 18.6181 21.4369 18.2816C21.6958 17.9709 21.8252 17.5955 21.8252 17.1553V10.6699L19.9612 11.1748Z" fill="#053576"/>
</svg>
