<svg width="14" height="14" viewBox="0 0 14 14" fill="none" xmlns="http://www.w3.org/2000/svg">
<path d="M0.135922 4.04369C0.045307 4.25512 0.045307 4.459 0.135922 4.65534C0.211434 4.85167 0.362459 4.98759 0.588996 5.0631L4.28155 6.10517C4.62891 6.18069 4.90831 6.07497 5.11974 5.78802L7 2.63915L1.44984 1.93689C1.28371 1.93689 1.16289 2.00485 1.08738 2.14077L0.135922 4.04369ZM7 2.63915L8.88026 5.78802C9.09169 6.07497 9.37109 6.18069 9.71845 6.10517L13.411 5.0631C13.6375 4.98759 13.7886 4.85167 13.8641 4.65534C13.9547 4.459 13.9547 4.25512 13.8641 4.04369L12.9126 2.14077C12.8371 2.00485 12.7163 1.93689 12.5502 1.93689L7 2.63915ZM11.712 6.2864V9.77508L7.54369 10.8171V5.3576C7.51348 5.02535 7.33225 4.84412 7 4.81391C6.66774 4.84412 6.48652 5.02535 6.45631 5.3576V10.8171L2.28803 9.77508V6.2864L1.20065 5.99191V9.77508C1.20065 10.0167 1.27616 10.2357 1.42718 10.432C1.57821 10.6284 1.77454 10.7567 2.01618 10.8171L6.66019 11.9725C6.88673 12.0329 7.12082 12.0329 7.36246 11.9725L11.9838 10.8171C12.2255 10.7567 12.4218 10.6284 12.5728 10.432C12.7238 10.2508 12.7994 10.0318 12.7994 9.77508V5.99191L11.712 6.2864Z" fill="#356DBB"/>
</svg>
