<svg width="14" height="14" viewBox="0 0 14 14" fill="none" xmlns="http://www.w3.org/2000/svg">
<g clip-path="url(#clip0_276_6187)">
<path d="M4.8125 2.40625C4.8125 2.40625 4.82161 2.42448 4.83984 2.46094C4.83984 2.47917 4.8763 2.52474 4.94922 2.59766C4.96745 2.59766 4.97656 2.59766 4.97656 2.59766C4.97656 2.61589 4.98568 2.625 5.00391 2.625C4.47526 2.64323 3.97396 2.67969 3.5 2.73438V2.40625C3.53646 1.91406 3.72786 1.52214 4.07422 1.23047C4.40234 0.957031 4.80339 0.729167 5.27734 0.546875C6.22526 0.200521 7.38281 0.0182292 8.75 0C10.1172 0.0182292 11.2747 0.200521 12.2227 0.546875C12.6966 0.729167 13.0977 0.957031 13.4258 1.23047C13.7721 1.52214 13.9635 1.91406 14 2.40625V5.25V8.09375C13.9635 8.58594 13.7721 8.97786 13.4258 9.26953C13.0977 9.54297 12.6966 9.77083 12.2227 9.95312C11.9674 10.0443 11.6849 10.1263 11.375 10.1992V8.85938C11.5208 8.80469 11.6484 8.75911 11.7578 8.72266C12.1406 8.57682 12.4049 8.43099 12.5508 8.28516C12.6237 8.21224 12.6693 8.16667 12.6875 8.14844C12.6875 8.11198 12.6875 8.09375 12.6875 8.09375V6.89062C12.5417 6.96354 12.3867 7.03646 12.2227 7.10938C11.9674 7.20052 11.6849 7.28255 11.375 7.35547V6.01562C11.5208 5.96094 11.6484 5.91536 11.7578 5.87891C12.1406 5.73307 12.4049 5.58724 12.5508 5.44141C12.6237 5.36849 12.6693 5.32292 12.6875 5.30469C12.6875 5.26823 12.6875 5.25 12.6875 5.25V4.04688C12.5417 4.11979 12.3867 4.19271 12.2227 4.26562C11.8581 4.39323 11.4388 4.5026 10.9648 4.59375C10.819 4.39323 10.6641 4.22005 10.5 4.07422C10.2266 3.83724 9.91667 3.63672 9.57031 3.47266C10.4635 3.39974 11.1927 3.25391 11.7578 3.03516C12.1406 2.88932 12.4049 2.74349 12.5508 2.59766C12.6237 2.52474 12.6693 2.47005 12.6875 2.43359C12.6875 2.41536 12.6875 2.40625 12.6875 2.40625C12.6875 2.40625 12.6875 2.38802 12.6875 2.35156C12.6693 2.33333 12.6237 2.28776 12.5508 2.21484C12.4049 2.06901 12.1406 1.92318 11.7578 1.77734C10.9922 1.48568 9.98958 1.33073 8.75 1.3125C7.51042 1.33073 6.50781 1.48568 5.74219 1.77734C5.35938 1.92318 5.09505 2.06901 4.94922 2.21484C4.8763 2.28776 4.83984 2.33333 4.83984 2.35156C4.82161 2.38802 4.8125 2.40625 4.8125 2.40625ZM1.3125 5.90625C1.3125 5.90625 1.32161 5.92448 1.33984 5.96094C1.33984 5.97917 1.3763 6.02474 1.44922 6.09766C1.59505 6.24349 1.85938 6.38932 2.24219 6.53516C3.00781 6.82682 4.01042 6.98177 5.25 7C6.48958 6.98177 7.49219 6.82682 8.25781 6.53516C8.64062 6.38932 8.90495 6.24349 9.05078 6.09766C9.1237 6.02474 9.16016 5.97917 9.16016 5.96094C9.17839 5.92448 9.1875 5.90625 9.1875 5.90625C9.1875 5.90625 9.17839 5.89714 9.16016 5.87891C9.16016 5.84245 9.1237 5.78776 9.05078 5.71484C8.90495 5.56901 8.64062 5.42318 8.25781 5.27734C7.49219 4.98568 6.48958 4.83073 5.25 4.8125C4.01042 4.83073 3.00781 4.98568 2.24219 5.27734C1.85938 5.42318 1.59505 5.56901 1.44922 5.71484C1.3763 5.78776 1.33984 5.84245 1.33984 5.87891C1.32161 5.89714 1.3125 5.90625 1.3125 5.90625ZM0 5.90625C0.0364583 5.41406 0.227865 5.02214 0.574219 4.73047C0.902344 4.45703 1.30339 4.22917 1.77734 4.04688C2.72526 3.70052 3.88281 3.51823 5.25 3.5C6.61719 3.51823 7.77474 3.70052 8.72266 4.04688C9.19661 4.22917 9.59766 4.45703 9.92578 4.73047C10.2721 5.02214 10.4635 5.41406 10.5 5.90625V8.75V11.5938C10.4635 12.0859 10.2721 12.4779 9.92578 12.7695C9.59766 13.043 9.19661 13.2708 8.72266 13.4531C7.77474 13.7995 6.61719 13.9818 5.25 14C3.88281 13.9818 2.72526 13.7995 1.77734 13.4531C1.30339 13.2708 0.902344 13.043 0.574219 12.7695C0.227865 12.4779 0.0364583 12.0859 0 11.5938V8.75V5.90625ZM9.1875 8.75V7.54688C9.04167 7.61979 8.88672 7.69271 8.72266 7.76562C7.77474 8.11198 6.61719 8.29427 5.25 8.3125C3.88281 8.29427 2.72526 8.11198 1.77734 7.76562C1.61328 7.69271 1.45833 7.62891 1.3125 7.57422V8.75C1.3125 8.75 1.32161 8.76823 1.33984 8.80469C1.33984 8.82292 1.3763 8.86849 1.44922 8.94141C1.59505 9.08724 1.85938 9.23307 2.24219 9.37891C3.00781 9.67057 4.01042 9.82552 5.25 9.84375C6.48958 9.82552 7.49219 9.67057 8.25781 9.37891C8.64062 9.23307 8.90495 9.08724 9.05078 8.94141C9.1237 8.86849 9.16016 8.82292 9.16016 8.80469C9.17839 8.76823 9.1875 8.75 9.1875 8.75ZM1.77734 10.6094C1.61328 10.5365 1.45833 10.4727 1.3125 10.418V11.5938C1.3125 11.5938 1.32161 11.612 1.33984 11.6484C1.33984 11.6667 1.3763 11.7122 1.44922 11.7852C1.59505 11.931 1.85938 12.0768 2.24219 12.2227C3.00781 12.5143 4.01042 12.6693 5.25 12.6875C6.48958 12.6693 7.49219 12.5143 8.25781 12.2227C8.64062 12.0768 8.90495 11.931 9.05078 11.7852C9.1237 11.7122 9.16016 11.6667 9.16016 11.6484C9.17839 11.612 9.1875 11.5938 9.1875 11.5938V10.3906C9.04167 10.4635 8.88672 10.5365 8.72266 10.6094C7.77474 10.9557 6.61719 11.138 5.25 11.1562C3.88281 11.138 2.72526 10.9557 1.77734 10.6094Z" fill="#575859"/>
</g>
<defs>
<clipPath id="clip0_276_6187">
<rect width="14" height="14" fill="white"/>
</clipPath>
</defs>
</svg>
