<svg width="14" height="14" viewBox="0 0 14 14" fill="none" xmlns="http://www.w3.org/2000/svg">
<g clip-path="url(#clip0_276_6182)">
<path d="M5.03125 0.65625C4.99479 0.255208 4.77604 0.0364583 4.375 0C3.97396 0.0364583 3.75521 0.255208 3.71875 0.65625V1.75H2.625C2.13281 1.76823 1.72266 1.94141 1.39453 2.26953C1.06641 2.59766 0.893229 3.00781 0.875 3.5V3.9375V5.25V12.25C0.893229 12.7422 1.06641 13.1523 1.39453 13.4805C1.72266 13.8086 2.13281 13.9818 2.625 14H11.375C11.8672 13.9818 12.2773 13.8086 12.6055 13.4805C12.9336 13.1523 13.1068 12.7422 13.125 12.25V5.25V3.9375V3.5C13.1068 3.00781 12.9336 2.59766 12.6055 2.26953C12.2773 1.94141 11.8672 1.76823 11.375 1.75H10.2812V0.65625C10.2448 0.255208 10.026 0.0364583 9.625 0C9.22396 0.0364583 9.00521 0.255208 8.96875 0.65625V1.75H5.03125V0.65625ZM2.1875 5.25H11.8125V12.25C11.7943 12.5234 11.6484 12.6693 11.375 12.6875H2.625C2.35156 12.6693 2.20573 12.5234 2.1875 12.25V5.25ZM3.5 7.65625C3.53646 8.05729 3.75521 8.27604 4.15625 8.3125H9.84375C10.2448 8.27604 10.4635 8.05729 10.5 7.65625C10.4635 7.25521 10.2448 7.03646 9.84375 7H4.15625C3.75521 7.03646 3.53646 7.25521 3.5 7.65625ZM4.15625 9.625C3.75521 9.66146 3.53646 9.88021 3.5 10.2812C3.53646 10.6823 3.75521 10.901 4.15625 10.9375H7.21875C7.61979 10.901 7.83854 10.6823 7.875 10.2812C7.83854 9.88021 7.61979 9.66146 7.21875 9.625H4.15625Z" fill="#575859"/>
</g>
<defs>
<clipPath id="clip0_276_6182">
<rect width="14" height="14" fill="white"/>
</clipPath>
</defs>
</svg>
