<svg width="12" height="12" viewBox="0 0 12 12" fill="none" xmlns="http://www.w3.org/2000/svg">
<g clip-path="url(#clip0_276_6228)">
<path d="M7.57031 0C7.33594 0 7.14062 0.078125 6.98438 0.234375C6.82812 0.390625 6.75 0.585938 6.75 0.820312C6.75 1.05469 6.82812 1.25 6.98438 1.40625L7.64062 2.0625L6.1875 3.51562C5.96875 3.75 5.85938 4.01562 5.85938 4.3125C5.85938 4.60938 5.96875 4.875 6.1875 5.10938L6.89062 5.8125C7.125 6.03125 7.39062 6.14062 7.6875 6.14062C7.98438 6.14062 8.25 6.03125 8.48438 5.8125L9.9375 4.35938L10.5938 5.01562C10.75 5.17188 10.9453 5.25 11.1797 5.25C11.4141 5.25 11.6094 5.17188 11.7656 5.01562C11.9219 4.85938 12 4.66406 12 4.42969V0.9375C12 0.671875 11.9062 0.453125 11.7188 0.28125C11.5469 0.09375 11.3281 0 11.0625 0H7.57031ZM8.83594 1.66406L8.29688 1.125H10.875V3.70312L10.3359 3.16406C10.0703 2.94531 9.80469 2.94531 9.53906 3.16406L7.6875 5.01562L6.98438 4.3125L8.83594 2.46094C9.05469 2.19531 9.05469 1.92969 8.83594 1.66406ZM4.42969 12C4.66406 12 4.85938 11.9219 5.01562 11.7656C5.17188 11.6094 5.25 11.4141 5.25 11.1797C5.25 10.9453 5.17188 10.75 5.01562 10.5938L4.35938 9.9375L5.8125 8.48438C6.03125 8.25 6.14062 7.98438 6.14062 7.6875C6.14062 7.39062 6.03125 7.125 5.8125 6.89062L5.10938 6.1875C4.875 5.96875 4.60938 5.85938 4.3125 5.85938C4.01562 5.85938 3.75 5.96875 3.51562 6.1875L2.0625 7.64062L1.40625 6.98438C1.25 6.82812 1.05469 6.75 0.820312 6.75C0.585938 6.75 0.390625 6.82812 0.234375 6.98438C0.078125 7.14062 0 7.33594 0 7.57031V11.0625C0 11.3281 0.09375 11.5469 0.28125 11.7188C0.453125 11.9062 0.671875 12 0.9375 12H4.42969ZM3.16406 10.3359L3.70312 10.875H1.125V8.29688L1.66406 8.83594C1.92969 9.05469 2.19531 9.05469 2.46094 8.83594L4.3125 6.98438L5.01562 7.6875L3.16406 9.53906C2.94531 9.80469 2.94531 10.0703 3.16406 10.3359Z" fill="#356DBB"/>
</g>
<defs>
<clipPath id="clip0_276_6228">
<rect width="12" height="12" fill="white"/>
</clipPath>
</defs>
</svg>
