<svg width="14" height="14" viewBox="0 0 14 14" fill="none" xmlns="http://www.w3.org/2000/svg">
<path d="M0 3.67498C0.0145833 3.22289 0.167708 2.85102 0.459375 2.55935C0.751042 2.26768 1.12292 2.11456 1.575 2.09998H7.175C7.62708 2.11456 7.99896 2.26768 8.29063 2.55935C8.58229 2.85102 8.73542 3.22289 8.75 3.67498V7.69998C8.72083 8.02081 8.54583 8.19581 8.225 8.22498C7.90417 8.19581 7.72917 8.02081 7.7 7.69998V3.67498C7.67083 3.35414 7.49583 3.17914 7.175 3.14998H1.575C1.25417 3.17914 1.07917 3.35414 1.05 3.67498V7.69998C1.02083 8.02081 0.845833 8.19581 0.525 8.22498C0.204167 8.19581 0.0291667 8.02081 0 7.69998V3.67498ZM13.3 10.15C13.2854 10.6458 13.1177 11.0614 12.7969 11.3969C12.4615 11.7177 12.0458 11.8854 11.55 11.9C11.0542 11.8854 10.6385 11.7177 10.3031 11.3969C9.98229 11.0614 9.81458 10.6458 9.8 10.15H9.45H6.3C6.28542 10.6458 6.11771 11.0614 5.79688 11.3969C5.46146 11.7177 5.04583 11.8854 4.55 11.9C3.95208 11.8854 3.48542 11.6521 3.15 11.2C2.81458 11.6521 2.34792 11.8854 1.75 11.9C1.25417 11.8854 0.838542 11.7177 0.503125 11.3969C0.182292 11.0614 0.0145833 10.6458 0 10.15C0.0145833 9.65414 0.182292 9.23852 0.503125 8.9031C0.838542 8.58227 1.25417 8.41456 1.75 8.39998C2.34792 8.41456 2.81458 8.64789 3.15 9.09998C3.48542 8.64789 3.95208 8.41456 4.55 8.39998C5.14792 8.41456 5.61458 8.64789 5.95 9.09998H9.45V6.99998V5.07498C9.47917 4.75414 9.65417 4.57914 9.975 4.54998H11.5719C11.951 4.56456 12.2646 4.71768 12.5125 5.00935L13.8031 6.56248C13.9344 6.72289 14 6.91248 14 7.13123V7.34998V7.69998V9.44998C14 9.65414 13.9344 9.82185 13.8031 9.9531C13.6719 10.0844 13.5042 10.15 13.3 10.15ZM12.7969 6.99998L11.7031 5.6656C11.674 5.62185 11.6302 5.59998 11.5719 5.59998H10.5V6.99998H12.7969ZM2.975 4.37498V7.17498C2.94583 7.49581 2.77083 7.67081 2.45 7.69998C2.12917 7.67081 1.95417 7.49581 1.925 7.17498V4.37498C1.95417 4.05414 2.12917 3.87914 2.45 3.84998C2.77083 3.87914 2.94583 4.05414 2.975 4.37498ZM4.9 4.37498V7.17498C4.87083 7.49581 4.69583 7.67081 4.375 7.69998C4.05417 7.67081 3.87917 7.49581 3.85 7.17498V4.37498C3.87917 4.05414 4.05417 3.87914 4.375 3.84998C4.69583 3.87914 4.87083 4.05414 4.9 4.37498ZM6.825 4.37498V7.17498C6.79583 7.49581 6.62083 7.67081 6.3 7.69998C5.97917 7.67081 5.80417 7.49581 5.775 7.17498V4.37498C5.80417 4.05414 5.97917 3.87914 6.3 3.84998C6.62083 3.87914 6.79583 4.05414 6.825 4.37498ZM11.55 10.85C11.7542 10.85 11.9219 10.7844 12.0531 10.6531C12.1844 10.5219 12.25 10.3541 12.25 10.15C12.25 9.94581 12.1844 9.7781 12.0531 9.64685C11.9219 9.5156 11.7542 9.44998 11.55 9.44998C11.3458 9.44998 11.1781 9.5156 11.0469 9.64685C10.9156 9.7781 10.85 9.94581 10.85 10.15C10.85 10.3541 10.9156 10.5219 11.0469 10.6531C11.1781 10.7844 11.3458 10.85 11.55 10.85ZM5.25 10.15C5.25 9.94581 5.18438 9.7781 5.05312 9.64685C4.92188 9.5156 4.75417 9.44998 4.55 9.44998C4.34583 9.44998 4.17812 9.5156 4.04688 9.64685C3.91563 9.7781 3.85 9.94581 3.85 10.15C3.85 10.3541 3.91563 10.5219 4.04688 10.6531C4.17812 10.7844 4.34583 10.85 4.55 10.85C4.75417 10.85 4.92188 10.7844 5.05312 10.6531C5.18438 10.5219 5.25 10.3541 5.25 10.15ZM1.75 10.85C1.95417 10.85 2.12188 10.7844 2.25312 10.6531C2.38438 10.5219 2.45 10.3541 2.45 10.15C2.45 9.94581 2.38438 9.7781 2.25312 9.64685C2.12188 9.5156 1.95417 9.44998 1.75 9.44998C1.54583 9.44998 1.37812 9.5156 1.24687 9.64685C1.11562 9.7781 1.05 9.94581 1.05 10.15C1.05 10.3541 1.11562 10.5219 1.24687 10.6531C1.37812 10.7844 1.54583 10.85 1.75 10.85Z" fill="#356DBB"/>
</svg>
