<svg width="14" height="14" viewBox="0 0 14 14" fill="none" xmlns="http://www.w3.org/2000/svg">
<path d="M7.72936 3.3086C7.74387 2.77153 7.93257 2.32156 8.29545 1.95867C8.65834 1.59579 9.10831 1.40709 9.64537 1.39258H13.4774C13.7967 1.42161 13.9709 1.59579 14 1.91513C13.9709 2.23447 13.7967 2.40865 13.4774 2.43768H9.64537C9.39861 2.43768 9.1954 2.52477 9.03573 2.69895C8.86155 2.85862 8.77446 3.06184 8.77446 3.3086V9.25261L9.34055 9.1002C9.54377 8.66474 9.84133 8.31637 10.2332 8.0551C10.6252 7.79382 11.0679 7.66318 11.5614 7.66318C12.2581 7.6777 12.8315 7.9172 13.2815 8.38169C13.7459 8.83167 13.9854 9.40502 14 10.1018C13.9854 10.7985 13.7459 11.3718 13.2815 11.8218C12.8315 12.2863 12.2581 12.5258 11.5614 12.5403C10.8937 12.5258 10.3349 12.3008 9.88488 11.8654C9.4349 11.4299 9.18089 10.8856 9.12282 10.2324L0.71847 12.5186C0.413649 12.5766 0.203177 12.4532 0.0870548 12.1484C0.0289936 11.8436 0.152374 11.6331 0.457195 11.517L7.72936 9.53566V3.3086ZM12.9549 10.1018C12.9403 9.5792 12.7081 9.18003 12.2581 8.90424C11.7936 8.64297 11.3291 8.64297 10.8647 8.90424C10.4147 9.18003 10.1824 9.5792 10.1679 10.1018C10.1824 10.6243 10.4147 11.0235 10.8647 11.2993C11.3291 11.5605 11.7936 11.5605 12.2581 11.2993C12.7081 11.0235 12.9403 10.6243 12.9549 10.1018ZM0.566059 5.92135C0.522514 5.71814 0.544286 5.53669 0.631378 5.37703C0.732985 5.21736 0.878138 5.11575 1.06684 5.0722L2.06839 4.78916L2.52562 6.46567C2.5982 6.66889 2.7361 6.75598 2.93931 6.72695L3.61427 6.53099C3.81748 6.45842 3.90458 6.32052 3.87555 6.11731L3.41831 4.44079L4.41987 4.15774C4.62308 4.1142 4.80452 4.13597 4.96419 4.22306C5.12386 4.32467 5.23273 4.46982 5.29079 4.65852L6.18348 8.01155C6.22702 8.20025 6.20525 8.37443 6.11816 8.5341C6.01655 8.70829 5.8714 8.81715 5.6827 8.8607L2.32967 9.77516C2.12645 9.81871 1.94501 9.79693 1.78534 9.70984C1.62568 9.60823 1.52407 9.46308 1.48052 9.27438L0.566059 5.92135Z" fill="#356DBB"/>
</svg>
